<svg width="224" height="200" viewBox="0 0 224 200" fill="none" xmlns="http://www.w3.org/2000/svg">
<circle cx="30.1767" cy="103.498" r="26.2218" fill="white"/>
<rect x="18.6857" y="91.7693" width="32.025" height="14.8921" transform="rotate(21.9328 18.6857 91.7693)" fill="url(#paint0_linear)"/>
<path d="M48.9632 105.866C48.3104 102.819 46.4489 100.324 43.7926 98.9662L36.2411 95.1061L37.9484 91.882C38.8131 90.2491 40.4841 89.1879 42.1669 89.1968L45.789 89.1862L46.0376 86.4402L42.4156 86.4509C39.6919 86.4951 37.0842 88.1416 35.7095 90.7376L34.0023 93.9616L26.5267 90.1403C21.29 87.4634 14.5345 90.0223 11.5127 95.8199C8.49096 101.617 10.2578 108.48 15.5167 111.114C18.135 112.453 21.2825 112.519 24.2347 111.315L27.5361 113.002C28.8638 119.054 34.7264 122.371 40.6432 120.394C46.56 118.417 50.2908 111.918 48.9632 105.866ZM22.2381 102.792L21.0238 102.171L20.3143 103.511C19.9374 104.223 19.1558 104.515 18.5107 104.185C17.8656 103.856 17.6605 103.059 18.0375 102.347L18.747 101.008L17.5327 100.387C16.8876 100.057 16.6825 99.2606 17.0594 98.5488C17.4363 97.837 18.2179 97.5448 18.863 97.8746L20.0773 98.4953L20.7868 97.1554C21.1637 96.4436 21.9452 96.1515 22.5903 96.4812C23.2354 96.811 23.4405 97.6075 23.0636 98.3193L22.3541 99.6592L23.5684 100.28C24.2135 100.61 24.4186 101.406 24.0417 102.118C23.6647 102.83 22.8832 103.122 22.2381 102.792ZM34.188 114.008C32.8978 113.349 32.4561 111.633 33.2099 110.21C33.9637 108.786 35.6471 108.157 36.9373 108.816C38.2275 109.476 38.6692 111.191 37.9153 112.615C37.1615 114.038 35.4782 114.668 34.188 114.008ZM40.6591 110.985C39.3689 110.325 38.9272 108.61 39.681 107.186C40.4348 105.763 42.1182 105.133 43.4084 105.793C44.6986 106.452 45.1403 108.168 44.3864 109.591C43.6326 111.015 41.9493 111.644 40.6591 110.985Z" fill="black"/>
<path d="M80.936 103.723H85.136V110.683C84.176 111.371 83.072 111.899 81.824 112.267C80.576 112.635 79.328 112.819 78.08 112.819C76.32 112.819 74.736 112.451 73.328 111.715C71.92 110.963 70.816 109.923 70.016 108.595C69.216 107.267 68.816 105.763 68.816 104.083C68.816 102.403 69.216 100.899 70.016 99.5713C70.816 98.2433 71.928 97.2113 73.352 96.4753C74.776 95.7233 76.384 95.3473 78.176 95.3473C79.744 95.3473 81.152 95.6113 82.4 96.1393C83.648 96.6673 84.688 97.4273 85.52 98.4193L82.496 101.155C81.36 99.9073 80 99.2833 78.416 99.2833C76.976 99.2833 75.816 99.7233 74.936 100.603C74.056 101.467 73.616 102.627 73.616 104.083C73.616 105.011 73.816 105.843 74.216 106.579C74.616 107.299 75.176 107.867 75.896 108.283C76.616 108.683 77.44 108.883 78.368 108.883C79.28 108.883 80.136 108.699 80.936 108.331V103.723ZM93.4767 99.2593C95.6367 99.2593 97.2847 99.7553 98.4207 100.747C99.5567 101.723 100.125 103.227 100.125 105.259V112.483H95.8767V110.803C95.2207 112.067 93.9407 112.699 92.0367 112.699C91.0287 112.699 90.1567 112.523 89.4207 112.171C88.6847 111.819 88.1247 111.347 87.7407 110.755C87.3727 110.147 87.1887 109.459 87.1887 108.691C87.1887 107.459 87.6607 106.507 88.6047 105.835C89.5487 105.147 91.0047 104.803 92.9727 104.803H95.5647C95.4847 103.427 94.5647 102.739 92.8047 102.739C92.1807 102.739 91.5487 102.843 90.9087 103.051C90.2687 103.243 89.7247 103.515 89.2767 103.867L87.7407 100.771C88.4607 100.291 89.3327 99.9233 90.3567 99.6673C91.3967 99.3953 92.4367 99.2593 93.4767 99.2593ZM93.3087 109.819C93.8367 109.819 94.3007 109.691 94.7007 109.435C95.1007 109.179 95.3887 108.803 95.5647 108.307V107.179H93.5967C92.2687 107.179 91.6047 107.619 91.6047 108.499C91.6047 108.899 91.7567 109.219 92.0607 109.459C92.3647 109.699 92.7807 109.819 93.3087 109.819ZM119.947 99.2593C121.547 99.2593 122.819 99.7393 123.763 100.699C124.723 101.659 125.203 103.107 125.203 105.043V112.483H120.643V105.787C120.643 104.875 120.467 104.203 120.115 103.771C119.779 103.339 119.299 103.123 118.675 103.123C117.987 103.123 117.435 103.363 117.019 103.843C116.603 104.323 116.395 105.051 116.395 106.027V112.483H111.835V105.787C111.835 104.011 111.179 103.123 109.867 103.123C109.163 103.123 108.603 103.363 108.187 103.843C107.771 104.323 107.563 105.051 107.563 106.027V112.483H103.003V99.4753H107.347V100.843C107.827 100.315 108.395 99.9233 109.051 99.6673C109.723 99.3953 110.451 99.2593 111.235 99.2593C112.147 99.2593 112.963 99.4273 113.683 99.7633C114.403 100.099 114.987 100.611 115.435 101.299C115.947 100.643 116.595 100.139 117.379 99.7873C118.163 99.4353 119.019 99.2593 119.947 99.2593ZM141.565 106.003C141.565 106.035 141.541 106.411 141.493 107.131H132.037C132.229 107.803 132.597 108.323 133.141 108.691C133.701 109.043 134.397 109.219 135.229 109.219C135.853 109.219 136.389 109.131 136.837 108.955C137.301 108.779 137.765 108.491 138.229 108.091L140.629 110.587C139.365 111.995 137.517 112.699 135.085 112.699C133.565 112.699 132.229 112.411 131.077 111.835C129.925 111.259 129.029 110.459 128.389 109.435C127.765 108.411 127.453 107.251 127.453 105.955C127.453 104.675 127.757 103.531 128.365 102.523C128.989 101.499 129.845 100.699 130.933 100.123C132.021 99.5473 133.245 99.2593 134.605 99.2593C135.901 99.2593 137.077 99.5313 138.133 100.075C139.189 100.603 140.021 101.379 140.629 102.403C141.253 103.411 141.565 104.611 141.565 106.003ZM134.629 102.499C133.925 102.499 133.333 102.699 132.853 103.099C132.389 103.499 132.093 104.043 131.965 104.731H137.293C137.165 104.043 136.861 103.499 136.381 103.099C135.917 102.699 135.333 102.499 134.629 102.499Z" fill="white"/>
<path d="M80.936 103.723H85.136V110.683C84.176 111.371 83.072 111.899 81.824 112.267C80.576 112.635 79.328 112.819 78.08 112.819C76.32 112.819 74.736 112.451 73.328 111.715C71.92 110.963 70.816 109.923 70.016 108.595C69.216 107.267 68.816 105.763 68.816 104.083C68.816 102.403 69.216 100.899 70.016 99.5713C70.816 98.2433 71.928 97.2113 73.352 96.4753C74.776 95.7233 76.384 95.3473 78.176 95.3473C79.744 95.3473 81.152 95.6113 82.4 96.1393C83.648 96.6673 84.688 97.4273 85.52 98.4193L82.496 101.155C81.36 99.9073 80 99.2833 78.416 99.2833C76.976 99.2833 75.816 99.7233 74.936 100.603C74.056 101.467 73.616 102.627 73.616 104.083C73.616 105.011 73.816 105.843 74.216 106.579C74.616 107.299 75.176 107.867 75.896 108.283C76.616 108.683 77.44 108.883 78.368 108.883C79.28 108.883 80.136 108.699 80.936 108.331V103.723ZM93.4767 99.2593C95.6367 99.2593 97.2847 99.7553 98.4207 100.747C99.5567 101.723 100.125 103.227 100.125 105.259V112.483H95.8767V110.803C95.2207 112.067 93.9407 112.699 92.0367 112.699C91.0287 112.699 90.1567 112.523 89.4207 112.171C88.6847 111.819 88.1247 111.347 87.7407 110.755C87.3727 110.147 87.1887 109.459 87.1887 108.691C87.1887 107.459 87.6607 106.507 88.6047 105.835C89.5487 105.147 91.0047 104.803 92.9727 104.803H95.5647C95.4847 103.427 94.5647 102.739 92.8047 102.739C92.1807 102.739 91.5487 102.843 90.9087 103.051C90.2687 103.243 89.7247 103.515 89.2767 103.867L87.7407 100.771C88.4607 100.291 89.3327 99.9233 90.3567 99.6673C91.3967 99.3953 92.4367 99.2593 93.4767 99.2593ZM93.3087 109.819C93.8367 109.819 94.3007 109.691 94.7007 109.435C95.1007 109.179 95.3887 108.803 95.5647 108.307V107.179H93.5967C92.2687 107.179 91.6047 107.619 91.6047 108.499C91.6047 108.899 91.7567 109.219 92.0607 109.459C92.3647 109.699 92.7807 109.819 93.3087 109.819ZM119.947 99.2593C121.547 99.2593 122.819 99.7393 123.763 100.699C124.723 101.659 125.203 103.107 125.203 105.043V112.483H120.643V105.787C120.643 104.875 120.467 104.203 120.115 103.771C119.779 103.339 119.299 103.123 118.675 103.123C117.987 103.123 117.435 103.363 117.019 103.843C116.603 104.323 116.395 105.051 116.395 106.027V112.483H111.835V105.787C111.835 104.011 111.179 103.123 109.867 103.123C109.163 103.123 108.603 103.363 108.187 103.843C107.771 104.323 107.563 105.051 107.563 106.027V112.483H103.003V99.4753H107.347V100.843C107.827 100.315 108.395 99.9233 109.051 99.6673C109.723 99.3953 110.451 99.2593 111.235 99.2593C112.147 99.2593 112.963 99.4273 113.683 99.7633C114.403 100.099 114.987 100.611 115.435 101.299C115.947 100.643 116.595 100.139 117.379 99.7873C118.163 99.4353 119.019 99.2593 119.947 99.2593ZM141.565 106.003C141.565 106.035 141.541 106.411 141.493 107.131H132.037C132.229 107.803 132.597 108.323 133.141 108.691C133.701 109.043 134.397 109.219 135.229 109.219C135.853 109.219 136.389 109.131 136.837 108.955C137.301 108.779 137.765 108.491 138.229 108.091L140.629 110.587C139.365 111.995 137.517 112.699 135.085 112.699C133.565 112.699 132.229 112.411 131.077 111.835C129.925 111.259 129.029 110.459 128.389 109.435C127.765 108.411 127.453 107.251 127.453 105.955C127.453 104.675 127.757 103.531 128.365 102.523C128.989 101.499 129.845 100.699 130.933 100.123C132.021 99.5473 133.245 99.2593 134.605 99.2593C135.901 99.2593 137.077 99.5313 138.133 100.075C139.189 100.603 140.021 101.379 140.629 102.403C141.253 103.411 141.565 104.611 141.565 106.003ZM134.629 102.499C133.925 102.499 133.333 102.699 132.853 103.099C132.389 103.499 132.093 104.043 131.965 104.731H137.293C137.165 104.043 136.861 103.499 136.381 103.099C135.917 102.699 135.333 102.499 134.629 102.499Z" fill="url(#paint1_linear)"/>
<path d="M149.787 112.819C148.427 112.819 147.107 112.651 145.827 112.315C144.547 111.979 143.507 111.531 142.707 110.971L144.267 107.467C145.019 107.963 145.891 108.363 146.883 108.667C147.875 108.971 148.851 109.123 149.811 109.123C151.635 109.123 152.547 108.667 152.547 107.755C152.547 107.275 152.283 106.923 151.755 106.699C151.243 106.459 150.411 106.211 149.259 105.955C147.995 105.683 146.939 105.395 146.091 105.091C145.243 104.771 144.515 104.267 143.907 103.579C143.299 102.891 142.995 101.963 142.995 100.795C142.995 99.7713 143.275 98.8513 143.835 98.0353C144.395 97.2033 145.227 96.5473 146.331 96.0673C147.451 95.5873 148.819 95.3473 150.435 95.3473C151.539 95.3473 152.627 95.4753 153.699 95.7313C154.771 95.9713 155.715 96.3313 156.531 96.8113L155.067 100.339C153.467 99.4753 151.915 99.0433 150.411 99.0433C149.467 99.0433 148.779 99.1873 148.347 99.4753C147.915 99.7473 147.699 100.107 147.699 100.555C147.699 101.003 147.955 101.339 148.467 101.563C148.979 101.787 149.803 102.019 150.939 102.259C152.219 102.531 153.275 102.827 154.107 103.147C154.955 103.451 155.683 103.947 156.291 104.635C156.915 105.307 157.227 106.227 157.227 107.395C157.227 108.403 156.947 109.315 156.387 110.131C155.827 110.947 154.987 111.603 153.867 112.099C152.747 112.579 151.387 112.819 149.787 112.819ZM168.182 111.955C167.798 112.195 167.326 112.379 166.766 112.507C166.222 112.635 165.638 112.699 165.014 112.699C163.318 112.699 162.014 112.283 161.102 111.451C160.19 110.619 159.734 109.379 159.734 107.731V103.363H157.838V99.9553H159.734V96.5713H164.294V99.9553H167.27V103.363H164.294V107.683C164.294 108.147 164.414 108.515 164.654 108.787C164.91 109.043 165.246 109.171 165.662 109.171C166.19 109.171 166.654 109.035 167.054 108.763L168.182 111.955ZM176.094 112.699C174.702 112.699 173.446 112.411 172.326 111.835C171.206 111.259 170.326 110.459 169.686 109.435C169.062 108.411 168.75 107.251 168.75 105.955C168.75 104.675 169.062 103.523 169.686 102.499C170.326 101.475 171.198 100.683 172.302 100.123C173.422 99.5473 174.686 99.2593 176.094 99.2593C177.502 99.2593 178.766 99.5473 179.886 100.123C181.006 100.683 181.878 101.475 182.502 102.499C183.126 103.507 183.438 104.659 183.438 105.955C183.438 107.251 183.126 108.411 182.502 109.435C181.878 110.459 181.006 111.259 179.886 111.835C178.766 112.411 177.502 112.699 176.094 112.699ZM176.094 109.075C176.894 109.075 177.55 108.803 178.062 108.259C178.574 107.699 178.83 106.931 178.83 105.955C178.83 104.995 178.574 104.243 178.062 103.699C177.55 103.155 176.894 102.883 176.094 102.883C175.294 102.883 174.638 103.155 174.126 103.699C173.614 104.243 173.358 104.995 173.358 105.955C173.358 106.931 173.614 107.699 174.126 108.259C174.638 108.803 175.294 109.075 176.094 109.075ZM192.198 112.699C190.758 112.699 189.47 112.411 188.334 111.835C187.198 111.259 186.31 110.459 185.67 109.435C185.046 108.411 184.734 107.251 184.734 105.955C184.734 104.659 185.046 103.507 185.67 102.499C186.31 101.475 187.198 100.683 188.334 100.123C189.47 99.5473 190.758 99.2593 192.198 99.2593C193.67 99.2593 194.942 99.5793 196.014 100.219C197.086 100.843 197.846 101.715 198.294 102.835L194.766 104.635C194.174 103.467 193.31 102.883 192.174 102.883C191.358 102.883 190.678 103.155 190.134 103.699C189.606 104.243 189.342 104.995 189.342 105.955C189.342 106.931 189.606 107.699 190.134 108.259C190.678 108.803 191.358 109.075 192.174 109.075C193.31 109.075 194.174 108.491 194.766 107.323L198.294 109.123C197.846 110.243 197.086 111.123 196.014 111.763C194.942 112.387 193.67 112.699 192.198 112.699ZM205.868 107.923L204.524 109.291V112.483H199.964V94.6753H204.524V104.011L209.18 99.4753H214.58L209.18 105.043L215.036 112.483H209.516L205.868 107.923Z" fill="white"/>
<defs>
<linearGradient id="paint0_linear" x1="34.6982" y1="91.7693" x2="34.6982" y2="106.661" gradientUnits="userSpaceOnUse">
<stop stop-color="#F91CAF" stop-opacity="0"/>
<stop offset="1" stop-color="#EE53BA"/>
</linearGradient>
<linearGradient id="paint1_linear" x1="146" y1="89.4833" x2="146" y2="120.483" gradientUnits="userSpaceOnUse">
<stop stop-color="white"/>
<stop offset="1" stop-color="#E60097"/>
</linearGradient>
</defs>
</svg>
